<svg xmlns="http://www.w3.org/2000/svg" width="1200" height="630" viewBox="0 0 1200 630">
<rect width="1200" height="630" fill="#0f172a"/><rect width="1200" height="8" fill="#2563eb"/>
<text x="80" y="120" font-family="sans-serif" font-size="40" font-weight="600" fill="#e2e8f0">Quem vence SENADOR/MA 2026?</text>
<text x="80" y="330" font-family="sans-serif" font-size="150" font-weight="800" fill="#3b82f6">31%</text>
<text x="80" y="390" font-family="sans-serif" font-size="34" fill="#94a3b8">Cadu Mendes (PL) lidera</text>
<g transform="translate(480,240)"><path d="M0.0,134.9 L26.7,136.4 L53.3,137.9 L80.0,139.2 L106.7,140.5 L133.3,141.6 L160.0,142.7 L186.7,143.8 L213.3,144.8 L240.0,136.0 L266.7,137.5 L293.3,129.2 L320.0,131.1 L346.7,123.2 L373.3,125.4 L400.0,117.8 L426.7,110.7 L453.3,104.1 L480.0,97.8 L506.7,91.9 L533.3,96.0 L560.0,99.9 L586.7,103.5 L613.3,106.9 L640.0,110.1" fill="none" stroke="#3b82f6" stroke-width="5" stroke-linecap="round"/></g>
<text x="80" y="530" font-family="sans-serif" font-size="30" font-weight="700" fill="#e2e8f0">DitoFeito</text>
<text x="80" y="580" font-family="sans-serif" font-size="20" fill="#64748b">Agregado de opiniões de participantes. Não é pesquisa eleitoral (Lei 9.504/97).</text></svg>